# xmcd
#
# Track frame offsets: 
#        150
#        23164
#        40249
#        58941
#        74146
#        101810
#        119930
#        144731
#        177395
#        203407
#        221379
#        248456
#        280357
#
# Disc length: 3943 seconds
#
# Revision: 1
# Processed by: cddbd v1.5.2PL0 Copyright (c) Steve Scherf et al.
# Submitted via: ExactAudioCopy v0.95b2
#
DISCID=d00f650d
DTITLE=Curtis Mayfield - Sweet Exorcist and Got To Find A Way 
DYEAR=1974
DGENRE=R&B
TTITLE0=Ain't Got Time
TTITLE1=Sweet Exorcist
TTITLE2=To Be Invisible
TTITLE3=Power To The people
TTITLE4=Kung Fu
TTITLE5=Suffer
TTITLE6=Make Me Believe In You
TTITLE7=Love Me (Right In The Pocket)
TTITLE8=So You Don't Love Me
TTITLE9=A Prayer
TTITLE10=Mothers's Son
TTITLE11=Cannot Find A Way
TTITLE12=Ain't No Love Lost
EXTD=
EXTT0=
EXTT1=
EXTT2=
EXTT3=
EXTT4=
EXTT5=
EXTT6=
EXTT7=
EXTT8=
EXTT9=
EXTT10=
EXTT11=
EXTT12=
PLAYORDER=
